<svg xmlns="http://www.w3.org/2000/svg" xmlns:xlink="http://www.w3.org/1999/xlink" style="margin:auto;background:#2a2a2a;display:block;z-index:1;position:relative" width="1440" height="718" preserveAspectRatio="xMidYMid" viewBox="0 0 1440 718">
<g transform="translate(720,359) scale(1,1) translate(-720,-359)"><path id="path0" d="M 311.81668007811913 675.532642636458
c 0 31.399840398004606 -7.682939671852189 9.019103093043876 -16.702042764896067 9.019103093043876
S 278.412594548327 706.9324830344626 278.412594548327 675.532642636458
s 7.682939671852189 -9.019103093043876 16.702042764896067 -9.019103093043876
S 311.81668007811913 644.1328022384535 311.81668007811913 675.532642636458
z" fill="none" stroke="none"></path>
<circle cx="0" cy="0" r="1.1078485939766378" fill="#ffffff">
  <animateMotion begin="-7.861756143078078s" dur="10s" repeatCount="indefinite">
    <mpath xlink:href="#path0"></mpath>
  </animateMotion>
</circle><path id="path1" d="M 544.4274447907294 642.6059219250894
c 0 29.374509425666183 -7.1873799658544915 8.437359090350926 -15.624739056205417 8.437359090350926
S 513.1779666783186 671.9804313507556 513.1779666783186 642.6059219250894
s 7.1873799658544915 -8.437359090350926 15.624739056205417 -8.437359090350926
S 544.4274447907294 613.2314124994233 544.4274447907294 642.6059219250894
z" fill="none" stroke="none"></path>
<circle cx="0" cy="0" r="0.80851303163782" fill="#ffffff">
  <animateMotion begin="-8.870867917868868s" dur="10s" repeatCount="indefinite">
    <mpath xlink:href="#path1"></mpath>
  </animateMotion>
</circle><path id="path2" d="M 692.2820105445646 385.0972246334548
c 0 29.666382586610176 -7.258795739276958 8.521194998281647 -15.779990737558604 8.521194998281647
S 660.7220290694474 414.76360722006496 660.7220290694474 385.0972246334548
s 7.258795739276958 -8.521194998281647 15.779990737558604 -8.521194998281647
S 692.2820105445646 355.43084204684465 692.2820105445646 385.0972246334548
z" fill="none" stroke="none"></path>
<circle cx="0" cy="0" r="1.1642905583625207" fill="#ffffff">
  <animateMotion begin="-6.9467959494354s" dur="10s" repeatCount="indefinite">
    <mpath xlink:href="#path2"></mpath>
  </animateMotion>
</circle><path id="path3" d="M 1329.6488677744628 116.68137158751685
c 0 37.5387380815319 -9.185010381651423 10.782403491503846 -19.96741387315527 10.782403491503846
S 1289.7140400281523 154.22010966904875 1289.7140400281523 116.68137158751685
s 9.185010381651423 -10.782403491503846 19.96741387315527 -10.782403491503846
S 1329.6488677744628 79.14263350598495 1329.6488677744628 116.68137158751685
z" fill="none" stroke="none"></path>
<circle cx="0" cy="0" r="0.9182957577854709" fill="#ffffff">
  <animateMotion begin="-2.9536372890780616s" dur="10s" repeatCount="indefinite">
    <mpath xlink:href="#path3"></mpath>
  </animateMotion>
</circle><path id="path4" d="M 502.0348372371787 292.41554058003976
c 0 30.315383233851907 -7.41759376998504 8.707610077808527 -16.125203847793568 8.707610077808527
S 469.7844295415916 322.73092381389165 469.7844295415916 292.41554058003976
s 7.41759376998504 -8.707610077808527 16.125203847793568 -8.707610077808527
S 502.0348372371787 262.10015734618787 502.0348372371787 292.41554058003976
z" fill="none" stroke="none"></path>
<circle cx="0" cy="0" r="1.44877118369818" fill="#ffffff">
  <animateMotion begin="-5.561914071578071s" dur="10s" repeatCount="indefinite">
    <mpath xlink:href="#path4"></mpath>
  </animateMotion>
</circle><path id="path5" d="M 594.9496860446558 214.8517930532081
c 0 19.277522754018424 -4.716840673855572 5.537160791047846 -10.254001464903418 5.537160791047846
S 574.4416831148488 234.12931580722653 574.4416831148488 214.8517930532081
s 4.716840673855572 -5.537160791047846 10.254001464903418 -5.537160791047846
S 594.9496860446558 195.57427029918966 594.9496860446558 214.8517930532081
z" fill="none" stroke="none"></path>
<circle cx="0" cy="0" r="0.989356910468633" fill="#ffffff">
  <animateMotion begin="-0.9856727097287954s" dur="10s" repeatCount="indefinite">
    <mpath xlink:href="#path5"></mpath>
  </animateMotion>
</circle><path id="path6" d="M 756.082034825325 530.397858308827
c 0 37.093280430601965 -9.07601542450899 10.65445288964099 -19.73046831414998 10.65445288964099
S 716.6210981970249 567.4911387394291 716.6210981970249 530.397858308827
s 9.07601542450899 -10.65445288964099 19.73046831414998 -10.65445288964099
S 756.082034825325 493.3045778782251 756.082034825325 530.397858308827
z" fill="none" stroke="none"></path>
<circle cx="0" cy="0" r="1.2554268314876746" fill="#ffffff">
  <animateMotion begin="-3.803207124120165s" dur="10s" repeatCount="indefinite">
    <mpath xlink:href="#path6"></mpath>
  </animateMotion>
</circle><path id="path7" d="M 303.1207062599182 205.39878180861473
c 0 20.83142819022761 -5.097051578459946 5.9834953312355905 -11.080546909695537 5.9834953312355905
S 280.9596124405271 226.23020999884233 280.9596124405271 205.39878180861473
s 5.097051578459946 -5.9834953312355905 11.080546909695537 -5.9834953312355905
S 303.1207062599182 184.56735361838713 303.1207062599182 205.39878180861473
z" fill="none" stroke="none"></path>
<circle cx="0" cy="0" r="0.7796401099003927" fill="#ffffff">
  <animateMotion begin="-7.184999944424783s" dur="10s" repeatCount="indefinite">
    <mpath xlink:href="#path7"></mpath>
  </animateMotion>
</circle><path id="path8" d="M 758.9447668172078 309.2320653573756
c 0 35.24450165616722 -8.623654660551553 10.123420688473564 -18.747075349025117 10.123420688473564
S 721.4506161191576 344.4765670135428 721.4506161191576 309.2320653573756
s 8.623654660551553 -10.123420688473564 18.747075349025117 -10.123420688473564
S 758.9447668172078 273.98756370120833 758.9447668172078 309.2320653573756
z" fill="none" stroke="none"></path>
<circle cx="0" cy="0" r="0.8035493042624822" fill="#ffffff">
  <animateMotion begin="-6.8818776193513s" dur="10s" repeatCount="indefinite">
    <mpath xlink:href="#path8"></mpath>
  </animateMotion>
</circle><path id="path9" d="M 690.4251401801389 347.1568877727334
c 0 22.61023403386227 -5.532291306157789 6.494428924620014 -12.026720230777803 6.494428924620014
S 666.3716997185834 369.7671218065957 666.3716997185834 347.1568877727334
s 5.532291306157789 -6.494428924620014 12.026720230777803 -6.494428924620014
S 690.4251401801389 324.5466537388711 690.4251401801389 347.1568877727334
z" fill="none" stroke="none"></path>
<circle cx="0" cy="0" r="1.0066045644731874" fill="#ffffff">
  <animateMotion begin="-5.545237728779275s" dur="10s" repeatCount="indefinite">
    <mpath xlink:href="#path9"></mpath>
  </animateMotion>
</circle><path id="path10" d="M 234.37837760621184 108.62460268969248
c 0 19.857864136981544 -4.858839097346547 5.703854592537252 -10.5626936898838 5.703854592537252
S 213.25299022644427 128.48246682667403 213.25299022644427 108.62460268969248
s 4.858839097346547 -5.703854592537252 10.5626936898838 -5.703854592537252
S 234.37837760621184 88.76673855271093 234.37837760621184 108.62460268969248
z" fill="none" stroke="none"></path>
<circle cx="0" cy="0" r="0.8686901188936789" fill="#ffffff">
  <animateMotion begin="-2.1247186850997113s" dur="10s" repeatCount="indefinite">
    <mpath xlink:href="#path10"></mpath>
  </animateMotion>
</circle><path id="path11" d="M 762.7432418187856 366.7481129213123
c 0 30.726163167729613 -7.518103753806181 8.825600058815953 -16.343703812622135 8.825600058815953
S 730.0558341935413 397.47427608904195 730.0558341935413 366.7481129213123
s 7.518103753806181 -8.825600058815953 16.343703812622135 -8.825600058815953
S 762.7432418187856 336.0219497535827 762.7432418187856 366.7481129213123
z" fill="none" stroke="none"></path>
<circle cx="0" cy="0" r="0.9363156832549471" fill="#ffffff">
  <animateMotion begin="-4.120373050925313s" dur="10s" repeatCount="indefinite">
    <mpath xlink:href="#path11"></mpath>
  </animateMotion>
</circle><path id="path12" d="M 45.66588141049357 542.6539863131561
c 0 29.74262678063764 -7.277451233560273 8.543094926353366 -15.820546159913638 8.543094926353366
S 14.024789090666294 572.3966130937938 14.024789090666294 542.6539863131561
s 7.277451233560273 -8.543094926353366 15.820546159913638 -8.543094926353366
S 45.66588141049357 512.9113595325184 45.66588141049357 542.6539863131561
z" fill="none" stroke="none"></path>
<circle cx="0" cy="0" r="1.320701736693116" fill="#ffffff">
  <animateMotion begin="-9.047881528054864s" dur="10s" repeatCount="indefinite">
    <mpath xlink:href="#path12"></mpath>
  </animateMotion>
</circle><path id="path13" d="M 649.4538811715573 288.95770101750287
c 0 18.884520112649263 -4.620680453095032 5.4242770536333 -10.04495750672833 5.4242770536333
S 629.3639661581007 307.84222113015215 629.3639661581007 288.95770101750287
s 4.620680453095032 -5.4242770536333 10.04495750672833 -5.4242770536333
S 649.4538811715573 270.0731809048536 649.4538811715573 288.95770101750287
z" fill="none" stroke="none"></path>
<circle cx="0" cy="0" r="1.4932546621502616" fill="#ffffff">
  <animateMotion begin="-7.908044891566228s" dur="10s" repeatCount="indefinite">
    <mpath xlink:href="#path13"></mpath>
  </animateMotion>
</circle><path id="path14" d="M 1060.7443239757006 300.27543226040285
c 0 36.802789284040884 -9.004937803541917 10.571013943288339 -19.575951746830256 10.571013943288339
S 1021.5924204820401 337.07822154444375 1021.5924204820401 300.27543226040285
s 9.004937803541917 -10.571013943288339 19.575951746830256 -10.571013943288339
S 1060.7443239757006 263.47264297636195 1060.7443239757006 300.27543226040285
z" fill="none" stroke="none"></path>
<circle cx="0" cy="0" r="1.2430510334257927" fill="#ffffff">
  <animateMotion begin="-5.869136182312618s" dur="10s" repeatCount="indefinite">
    <mpath xlink:href="#path14"></mpath>
  </animateMotion>
</circle><path id="path15" d="M 90.74898779636892 84.77356365198582
c 0 30.11901282346309 -7.369545690847351 8.651205810994718 -16.02075150184207 8.651205810994718
S 58.70748479268478 114.89257647544892 58.70748479268478 84.77356365198582
s 7.369545690847351 -8.651205810994718 16.02075150184207 -8.651205810994718
S 90.74898779636892 54.65455082852273 90.74898779636892 84.77356365198582
z" fill="none" stroke="none"></path>
<circle cx="0" cy="0" r="1.4728967177926913" fill="#ffffff">
  <animateMotion begin="-9.899368200896417s" dur="10s" repeatCount="indefinite">
    <mpath xlink:href="#path15"></mpath>
  </animateMotion>
</circle><path id="path16" d="M 1035.1513299539322 80.9981329735729
c 0 33.268469501462526 -8.140157431208916 9.55583698446264 -17.695994415671557 9.55583698446264
S 999.759341122589 114.26660247503543 999.759341122589 80.9981329735729
s 8.140157431208916 -9.55583698446264 17.695994415671557 -9.55583698446264
S 1035.1513299539322 47.72966347211037 1035.1513299539322 80.9981329735729
z" fill="none" stroke="none"></path>
<circle cx="0" cy="0" r="0.9287803772146461" fill="#ffffff">
  <animateMotion begin="-4.542196822216233s" dur="10s" repeatCount="indefinite">
    <mpath xlink:href="#path16"></mpath>
  </animateMotion>
</circle><path id="path17" d="M 441.9171336806479 237.61163886245635
c 0 29.264750861148528 -7.160524146876766 8.405832694159685 -15.56635684103645 8.405832694159685
S 410.784419998575 266.87638972360486 410.784419998575 237.61163886245635
s 7.160524146876766 -8.405832694159685 15.56635684103645 -8.405832694159685
S 441.9171336806479 208.34688800130783 441.9171336806479 237.61163886245635
z" fill="none" stroke="none"></path>
<circle cx="0" cy="0" r="1.144809452850874" fill="#ffffff">
  <animateMotion begin="-3.3680561608750414s" dur="10s" repeatCount="indefinite">
    <mpath xlink:href="#path17"></mpath>
  </animateMotion>
</circle><path id="path18" d="M 1134.1363429616065 119.45020862805266
c 0 31.15913803047669 -7.624044411712381 8.949965178966709 -16.57400959067909 8.949965178966709
S 1100.9883237802485 150.60934665852935 1100.9883237802485 119.45020862805266
s 7.624044411712381 -8.949965178966709 16.57400959067909 -8.949965178966709
S 1134.1363429616065 88.29107059757598 1134.1363429616065 119.45020862805266
z" fill="none" stroke="none"></path>
<circle cx="0" cy="0" r="0.9091358121629133" fill="#ffffff">
  <animateMotion begin="-7.271490500952753s" dur="10s" repeatCount="indefinite">
    <mpath xlink:href="#path18"></mpath>
  </animateMotion>
</circle><path id="path19" d="M 1437.119883806503 640.8674546053094
c 0 19.025199514344735 -4.65510200882903 5.464684966886254 -10.119786975715284 5.464684966886254
S 1416.8803098550725 659.8926541196541 1416.8803098550725 640.8674546053094
s 4.65510200882903 -5.464684966886254 10.119786975715284 -5.464684966886254
S 1437.119883806503 621.8422550909646 1437.119883806503 640.8674546053094
z" fill="none" stroke="none"></path>
<circle cx="0" cy="0" r="1.0932304184335135" fill="#ffffff">
  <animateMotion begin="-1.1901498182989356s" dur="10s" repeatCount="indefinite">
    <mpath xlink:href="#path19"></mpath>
  </animateMotion>
</circle><path id="path20" d="M 1207.098402520665 374.2470419916452
c 0 30.62638302758701 -7.493689464196821 8.796939805796269 -16.29062926999309 8.796939805796269
S 1174.5171439806788 404.8734250192322 1174.5171439806788 374.2470419916452
s 7.493689464196821 -8.796939805796269 16.29062926999309 -8.796939805796269
S 1207.098402520665 343.6206589640582 1207.098402520665 374.2470419916452
z" fill="none" stroke="none"></path>
<circle cx="0" cy="0" r="1.4930253159566322" fill="#ffffff">
  <animateMotion begin="-5.159450558679726s" dur="10s" repeatCount="indefinite">
    <mpath xlink:href="#path20"></mpath>
  </animateMotion>
</circle><path id="path21" d="M 1348.5853335538604 275.2131011987816
c 0 22.966905264357138 -5.6195619263852565 6.596877044017476 -12.216438970402733 6.596877044017476
S 1324.1524556130548 298.18000646313874 1324.1524556130548 275.2131011987816
s 5.6195619263852565 -6.596877044017476 12.216438970402733 -6.596877044017476
S 1348.5853335538604 252.24619593442446 1348.5853335538604 275.2131011987816
z" fill="none" stroke="none"></path>
<circle cx="0" cy="0" r="1.2948314344935783" fill="#ffffff">
  <animateMotion begin="-6.598969880396068s" dur="10s" repeatCount="indefinite">
    <mpath xlink:href="#path21"></mpath>
  </animateMotion>
</circle><path id="path22" d="M 584.400023468403 41.82596263293508
c 0 21.62338746107855 -5.290828846859645 6.210972994139584 -11.501801840999228 6.210972994139584
S 561.3964197864046 63.44935009401363 561.3964197864046 41.82596263293508
s 5.290828846859645 -6.210972994139584 11.501801840999228 -6.210972994139584
S 584.400023468403 20.20257517185653 584.400023468403 41.82596263293508
z" fill="none" stroke="none"></path>
<circle cx="0" cy="0" r="1.3118144119134054" fill="#ffffff">
  <animateMotion begin="-3.3347907612245664s" dur="10s" repeatCount="indefinite">
    <mpath xlink:href="#path22"></mpath>
  </animateMotion>
</circle><path id="path23" d="M 1029.4792106935618 563.1352754564075
c 0 21.755435578308347 -5.323138492564808 6.248901708663037 -11.572040201227844 6.248901708663037
S 1006.335130291106 584.8907110347159 1006.335130291106 563.1352754564075
s 5.323138492564808 -6.248901708663037 11.572040201227844 -6.248901708663037
S 1029.4792106935618 541.3798398780991 1029.4792106935618 563.1352754564075
z" fill="none" stroke="none"></path>
<circle cx="0" cy="0" r="1.160653657604763" fill="#ffffff">
  <animateMotion begin="-9.618970799204972s" dur="10s" repeatCount="indefinite">
    <mpath xlink:href="#path23"></mpath>
  </animateMotion>
</circle><path id="path24" d="M 207.7633924977248 261.05959898782476
c 0 32.695427112880296 -7.999944931874966 9.391239702635831 -17.391184634510797 9.391239702635831
S 172.98102322870318 293.75502610070504 172.98102322870318 261.05959898782476
s 7.999944931874966 -9.391239702635831 17.391184634510797 -9.391239702635831
S 207.7633924977248 228.36417187494447 207.7633924977248 261.05959898782476
z" fill="none" stroke="none"></path>
<circle cx="0" cy="0" r="0.8943689163293167" fill="#ffffff">
  <animateMotion begin="-4.033274771723143s" dur="10s" repeatCount="indefinite">
    <mpath xlink:href="#path24"></mpath>
  </animateMotion>
</circle><path id="path25" d="M 372.68479285990315 204.17888241659296
c 0 30.777437672797983 -7.530649643344187 8.840327842186655 -16.370977485530844 8.840327842186655
S 339.9428378888415 234.95632008939094 339.9428378888415 204.17888241659296
s 7.530649643344187 -8.840327842186655 16.370977485530844 -8.840327842186655
S 372.68479285990315 173.40144474379497 372.68479285990315 204.17888241659296
z" fill="none" stroke="none"></path>
<circle cx="0" cy="0" r="1.40997098673189" fill="#ffffff">
  <animateMotion begin="-6.7284725402091965s" dur="10s" repeatCount="indefinite">
    <mpath xlink:href="#path25"></mpath>
  </animateMotion>
</circle><path id="path26" d="M 97.4322556097266 495.51435150830406
c 0 23.521341667141396 -5.755221897279277 6.7561300533278486 -12.511351950607125 6.7561300533278486
S 72.40955170851235 519.0356931754454 72.40955170851235 495.51435150830406
s 5.755221897279277 -6.7561300533278486 12.511351950607125 -6.7561300533278486
S 97.4322556097266 471.9930098411627 97.4322556097266 495.51435150830406
z" fill="none" stroke="none"></path>
<circle cx="0" cy="0" r="1.0861128516393899" fill="#ffffff">
  <animateMotion begin="-4.446716084690829s" dur="10s" repeatCount="indefinite">
    <mpath xlink:href="#path26"></mpath>
  </animateMotion>
</circle><path id="path27" d="M 1395.4391811250814 308.2404840726432
c 0 22.534876915923775 -5.51385286240688 6.472783794999382 -11.986636657406262 6.472783794999382
S 1371.4659078102688 330.77536098856694 1371.4659078102688 308.2404840726432
s 5.51385286240688 -6.472783794999382 11.986636657406262 -6.472783794999382
S 1395.4391811250814 285.70560715671945 1395.4391811250814 308.2404840726432
z" fill="none" stroke="none"></path>
<circle cx="0" cy="0" r="0.8249794419116483" fill="#ffffff">
  <animateMotion begin="-0.9420424878162681s" dur="10s" repeatCount="indefinite">
    <mpath xlink:href="#path27"></mpath>
  </animateMotion>
</circle><path id="path28" d="M 408.3952014970715 528.545471572464
c 0 36.58250600013197 -8.95103870215995 10.507741085144291 -19.45877978730424 10.507741085144291
S 369.477641922463 565.1279775725959 369.477641922463 528.545471572464
s 8.95103870215995 -10.507741085144291 19.45877978730424 -10.507741085144291
S 408.3952014970715 491.962965572332 408.3952014970715 528.545471572464
z" fill="none" stroke="none"></path>
<circle cx="0" cy="0" r="1.1189351651086255" fill="#ffffff">
  <animateMotion begin="-0.2796006134055129s" dur="10s" repeatCount="indefinite">
    <mpath xlink:href="#path28"></mpath>
  </animateMotion>
</circle><path id="path29" d="M 1149.6091191203047 97.3684657390305
c 0 22.957433037501858 -5.617244253856837 6.594156298005853 -12.21140055186269 6.594156298005853
S 1125.1863180165794 120.32589877653236 1125.1863180165794 97.3684657390305
s 5.617244253856837 -6.594156298005853 12.21140055186269 -6.594156298005853
S 1149.6091191203047 74.41103270152864 1149.6091191203047 97.3684657390305
z" fill="none" stroke="none"></path>
<circle cx="0" cy="0" r="0.7724071366950521" fill="#ffffff">
  <animateMotion begin="-7.658430546389323s" dur="10s" repeatCount="indefinite">
    <mpath xlink:href="#path29"></mpath>
  </animateMotion>
</circle><path id="path30" d="M 409.9157511784601 372.7763743287672
c 0 33.094795476355614 -8.097662722938075 9.505951892144699 -17.603614615082776 9.505951892144699
S 374.7085219482945 405.8711698051228 374.7085219482945 372.7763743287672
s 8.097662722938075 -9.505951892144699 17.603614615082776 -9.505951892144699
S 409.9157511784601 339.6815788524116 409.9157511784601 372.7763743287672
z" fill="none" stroke="none"></path>
<circle cx="0" cy="0" r="1.3722549830637032" fill="#ffffff">
  <animateMotion begin="-8.131769976470043s" dur="10s" repeatCount="indefinite">
    <mpath xlink:href="#path30"></mpath>
  </animateMotion>
</circle><path id="path31" d="M 553.7484102579803 662.4560785120589
c 0 26.87022915968805 -6.574630539072607 7.718044545867844 -14.292675084940452 7.718044545867844
S 525.1630600880993 689.3263076717469 525.1630600880993 662.4560785120589
s 6.574630539072607 -7.718044545867844 14.292675084940452 -7.718044545867844
S 553.7484102579803 635.5858493523708 553.7484102579803 662.4560785120589
z" fill="none" stroke="none"></path>
<circle cx="0" cy="0" r="0.8314152327861092" fill="#ffffff">
  <animateMotion begin="-1.9594210457372219s" dur="10s" repeatCount="indefinite">
    <mpath xlink:href="#path31"></mpath>
  </animateMotion>
</circle><path id="path32" d="M 1218.4621543424128 396.98005687777186
c 0 29.75683319680683 -7.280927271559117 8.547175492699834 -15.82810276425895 8.547175492699834
S 1186.8059488138947 426.7368900745787 1186.8059488138947 396.98005687777186
s 7.280927271559117 -8.547175492699834 15.82810276425895 -8.547175492699834
S 1218.4621543424128 367.223223680965 1218.4621543424128 396.98005687777186
z" fill="none" stroke="none"></path>
<circle cx="0" cy="0" r="1.4040114472357135" fill="#ffffff">
  <animateMotion begin="-7.971165871415236s" dur="10s" repeatCount="indefinite">
    <mpath xlink:href="#path32"></mpath>
  </animateMotion>
</circle><path id="path33" d="M 1099.0465483186276 275.8655443856429
c 0 27.0510863660769 -6.618882834252857 7.76999289238379 -14.388875726636648 7.76999289238379
S 1070.2687968653545 302.9166307517198 1070.2687968653545 275.8655443856429
s 6.618882834252857 -7.76999289238379 14.388875726636648 -7.76999289238379
S 1099.0465483186276 248.81445801956602 1099.0465483186276 275.8655443856429
z" fill="none" stroke="none"></path>
<circle cx="0" cy="0" r="1.432824329340997" fill="#ffffff">
  <animateMotion begin="-6.23183159741081s" dur="10s" repeatCount="indefinite">
    <mpath xlink:href="#path33"></mpath>
  </animateMotion>
</circle><path id="path34" d="M 1167.3544537371101 670.2071547959121
c 0 36.59395924634007 -8.95384109218959 10.511030847352998 -19.46487193954259 10.511030847352998
S 1128.4247098580252 706.8011140422522 1128.4247098580252 670.2071547959121
s 8.95384109218959 -10.511030847352998 19.46487193954259 -10.511030847352998
S 1167.3544537371101 633.613195549572 1167.3544537371101 670.2071547959121
z" fill="none" stroke="none"></path>
<circle cx="0" cy="0" r="1.2124716471129524" fill="#ffffff">
  <animateMotion begin="-3.371362496724093s" dur="10s" repeatCount="indefinite">
    <mpath xlink:href="#path34"></mpath>
  </animateMotion>
</circle><path id="path35" d="M 300.0675786317916 565.7047880841169
c 0 21.638064123140726 -5.294419945023794 6.21518863111489 -11.509608576138683 6.21518863111489
S 277.0483614795142 587.3428522072576 277.0483614795142 565.7047880841169
s 5.294419945023794 -6.21518863111489 11.509608576138683 -6.21518863111489
S 300.0675786317916 544.0667239609762 300.0675786317916 565.7047880841169
z" fill="none" stroke="none"></path>
<circle cx="0" cy="0" r="1.1033119382967522" fill="#ffffff">
  <animateMotion begin="-9.533836910626492s" dur="10s" repeatCount="indefinite">
    <mpath xlink:href="#path35"></mpath>
  </animateMotion>
</circle><path id="path36" d="M 430.2682224397656 157.93008890761445
c 0 32.34607785677925 -7.914465858573647 9.290894703542978 -17.205360562116624 9.290894703542978
S 395.85750131553243 190.2761667643937 395.85750131553243 157.93008890761445
s 7.914465858573647 -9.290894703542978 17.205360562116624 -9.290894703542978
S 430.2682224397656 125.58401105083519 430.2682224397656 157.93008890761445
z" fill="none" stroke="none"></path>
<circle cx="0" cy="0" r="0.8849257246491118" fill="#ffffff">
  <animateMotion begin="-1.5026156187313777s" dur="10s" repeatCount="indefinite">
    <mpath xlink:href="#path36"></mpath>
  </animateMotion>
</circle><path id="path37" d="M 313.66969905499207 547.7872520999399
c 0 36.00921993456627 -8.810766579734299 10.343073810992438 -19.15384039072674 10.343073810992438
S 275.36201827353864 583.7964720345062 275.36201827353864 547.7872520999399
s 8.810766579734299 -10.343073810992438 19.15384039072674 -10.343073810992438
S 313.66969905499207 511.77803216537365 313.66969905499207 547.7872520999399
z" fill="none" stroke="none"></path>
<circle cx="0" cy="0" r="1.2249290953384353" fill="#ffffff">
  <animateMotion begin="-3.9204210970757614s" dur="10s" repeatCount="indefinite">
    <mpath xlink:href="#path37"></mpath>
  </animateMotion>
</circle><path id="path38" d="M 28.00202804983669 400.5077688301729
c 0 31.32795023826919 -7.665349526385014 8.998453791843279 -16.663803318228293 8.998453791843279
S -5.3255785866198995 431.8357190684421 -5.3255785866198995 400.5077688301729
s 7.665349526385014 -8.998453791843279 16.663803318228293 -8.998453791843279
S 28.00202804983669 369.1798185919037 28.00202804983669 400.5077688301729
z" fill="none" stroke="none"></path>
<circle cx="0" cy="0" r="1.419993672301746" fill="#ffffff">
  <animateMotion begin="-9.479340900224116s" dur="10s" repeatCount="indefinite">
    <mpath xlink:href="#path38"></mpath>
  </animateMotion>
</circle><path id="path39" d="M 801.3225324973777 630.682381066722
c 0 21.162068733228317 -5.177952987917567 6.0784665510336655 -11.256419538951231 6.0784665510336655
S 778.8096934194751 651.8444497999503 778.8096934194751 630.682381066722
s 5.177952987917567 -6.0784665510336655 11.256419538951231 -6.0784665510336655
S 801.3225324973777 609.5203123334936 801.3225324973777 630.682381066722
z" fill="none" stroke="none"></path>
<circle cx="0" cy="0" r="0.9044618596855143" fill="#ffffff">
  <animateMotion begin="-2.0281009308928777s" dur="10s" repeatCount="indefinite">
    <mpath xlink:href="#path39"></mpath>
  </animateMotion>
</circle><path id="path40" d="M 708.2617606008283 15.060089970924249
c 0 23.029438890251164 -5.634862707189114 6.614838830178527 -12.249701537367642 6.614838830178527
S 683.7623575260931 38.08952886117541 683.7623575260931 15.060089970924249
s 5.634862707189114 -6.614838830178527 12.249701537367642 -6.614838830178527
S 708.2617606008283 -7.969348919326915 708.2617606008283 15.060089970924249
z" fill="none" stroke="none"></path>
<circle cx="0" cy="0" r="1.4017804524358324" fill="#ffffff">
  <animateMotion begin="-7.407750799229147s" dur="10s" repeatCount="indefinite">
    <mpath xlink:href="#path40"></mpath>
  </animateMotion>
</circle><path id="path41" d="M 328.1117607798299 105.7953882420494
c 0 27.745012711297115 -6.788673322976953 7.969312161755554 -14.757985484732508 7.969312161755554
S 298.5957898103649 133.5404009533465 298.5957898103649 105.7953882420494
s 6.788673322976953 -7.969312161755554 14.757985484732508 -7.969312161755554
S 328.1117607798299 78.05037553075229 328.1117607798299 105.7953882420494
z" fill="none" stroke="none"></path>
<circle cx="0" cy="0" r="1.2144635887884423" fill="#ffffff">
  <animateMotion begin="-6.0356074966904565s" dur="10s" repeatCount="indefinite">
    <mpath xlink:href="#path41"></mpath>
  </animateMotion>
</circle><path id="path42" d="M 1331.1363988680978 429.2256930512167
c 0 21.684550069851866 -5.305794166027583 6.228540977510642 -11.534335143538225 6.228540977510642
S 1308.0677285810211 450.91024312106856 1308.0677285810211 429.2256930512167
s 5.305794166027583 -6.228540977510642 11.534335143538225 -6.228540977510642
S 1331.1363988680978 407.5411429813648 1331.1363988680978 429.2256930512167
z" fill="none" stroke="none"></path>
<circle cx="0" cy="0" r="0.8619361140749832" fill="#ffffff">
  <animateMotion begin="-8.059193780365296s" dur="10s" repeatCount="indefinite">
    <mpath xlink:href="#path42"></mpath>
  </animateMotion>
</circle><path id="path43" d="M 956.3604757724133 336.84187303711786
c 0 28.125525138929973 -6.881777427610524 8.078608284586268 -14.960385712196793 8.078608284586268
S 926.4397043480199 364.9673981760478 926.4397043480199 336.84187303711786
s 6.881777427610524 -8.078608284586268 14.960385712196793 -8.078608284586268
S 956.3604757724133 308.7163478981879 956.3604757724133 336.84187303711786
z" fill="none" stroke="none"></path>
<circle cx="0" cy="0" r="1.241716320621884" fill="#ffffff">
  <animateMotion begin="-9.818629194721304s" dur="10s" repeatCount="indefinite">
    <mpath xlink:href="#path43"></mpath>
  </animateMotion>
</circle><path id="path44" d="M 493.4552452207639 617.9258981794815
c 0 21.815992507655352 -5.337955613575246 6.266295720283985 -11.60425133385923 6.266295720283985
S 470.24674255304546 639.7418906871368 470.24674255304546 617.9258981794815
s 5.337955613575246 -6.266295720283985 11.60425133385923 -6.266295720283985
S 493.4552452207639 596.1099056718261 493.4552452207639 617.9258981794815
z" fill="none" stroke="none"></path>
<circle cx="0" cy="0" r="1.0557425649016363" fill="#ffffff">
  <animateMotion begin="-1.4836581654887948s" dur="10s" repeatCount="indefinite">
    <mpath xlink:href="#path44"></mpath>
  </animateMotion>
</circle><path id="path45" d="M 370.19809473713195 228.02012701352533
c 0 31.956300553651655 -7.819094816319021 9.178937393070157 -16.998032209389176 9.178937393070157
S 336.2020303183536 259.976427567177 336.2020303183536 228.02012701352533
s 7.819094816319021 -9.178937393070157 16.998032209389176 -9.178937393070157
S 370.19809473713195 196.06382645987367 370.19809473713195 228.02012701352533
z" fill="none" stroke="none"></path>
<circle cx="0" cy="0" r="0.8584046725060843" fill="#ffffff">
  <animateMotion begin="-8.559686786727793s" dur="10s" repeatCount="indefinite">
    <mpath xlink:href="#path45"></mpath>
  </animateMotion>
</circle><path id="path46" d="M 1032.17088305904 578.2717281664643
c 0 31.228071438460454 -7.640911096644579 8.969765200408855 -16.610676297053434 8.969765200408855
S 998.9495304649332 609.4997996049248 998.9495304649332 578.2717281664643
s 7.640911096644579 -8.969765200408855 16.610676297053434 -8.969765200408855
S 1032.17088305904 547.0436567280038 1032.17088305904 578.2717281664643
z" fill="none" stroke="none"></path>
<circle cx="0" cy="0" r="1.2613736597333143" fill="#ffffff">
  <animateMotion begin="-0.16691386037545497s" dur="10s" repeatCount="indefinite">
    <mpath xlink:href="#path46"></mpath>
  </animateMotion>
</circle><path id="path47" d="M 939.4608101939102 638.4380999774605
c 0 31.065508415528484 -7.601135037842075 8.923071566162438 -16.52420660400451 8.923071566162438
S 906.4123969859013 669.503608392989 906.4123969859013 638.4380999774605
s 7.601135037842075 -8.923071566162438 16.52420660400451 -8.923071566162438
S 939.4608101939102 607.372591561932 939.4608101939102 638.4380999774605
z" fill="none" stroke="none"></path>
<circle cx="0" cy="0" r="0.9347525288894136" fill="#ffffff">
  <animateMotion begin="-7.9655427302664545s" dur="10s" repeatCount="indefinite">
    <mpath xlink:href="#path47"></mpath>
  </animateMotion>
</circle><path id="path48" d="M 678.210198456022 527.1038739609093
c 0 35.58563972022719 -8.707124612396015 10.221407153682279 -18.928531766078294 10.221407153682279
S 640.3531349238654 562.6895136811364 640.3531349238654 527.1038739609093
s 8.707124612396015 -10.221407153682279 18.928531766078294 -10.221407153682279
S 678.210198456022 491.5182342406821 678.210198456022 527.1038739609093
z" fill="none" stroke="none"></path>
<circle cx="0" cy="0" r="1.498905043908958" fill="#ffffff">
  <animateMotion begin="-5.189136628926436s" dur="10s" repeatCount="indefinite">
    <mpath xlink:href="#path48"></mpath>
  </animateMotion>
</circle><path id="path49" d="M 883.7218159187984 355.2992295347251
c 0 26.034912980085096 -6.370244665339969 7.4781133027904 -13.848357968130369 7.4781133027904
S 856.0250999825377 381.3341425148102 856.0250999825377 355.2992295347251
s 6.370244665339969 -7.4781133027904 13.848357968130369 -7.4781133027904
S 883.7218159187984 329.26431655464 883.7218159187984 355.2992295347251
z" fill="none" stroke="none"></path>
<circle cx="0" cy="0" r="1.21081605552017" fill="#ffffff">
  <animateMotion begin="-4.322360207916218s" dur="10s" repeatCount="indefinite">
    <mpath xlink:href="#path49"></mpath>
  </animateMotion>
</circle><path id="path50" d="M 1065.7902051634276 688.6335127888593
c 0 36.48477910938363 -8.927126803359824 10.479670595248491 -19.406797398608315 10.479670595248491
S 1026.9766103662112 725.118291898243 1026.9766103662112 688.6335127888593
s 8.927126803359824 -10.479670595248491 19.406797398608315 -10.479670595248491
S 1065.7902051634276 652.1487336794756 1065.7902051634276 688.6335127888593
z" fill="none" stroke="none"></path>
<circle cx="0" cy="0" r="1.3500940226807168" fill="#ffffff">
  <animateMotion begin="-8.728935200143713s" dur="10s" repeatCount="indefinite">
    <mpath xlink:href="#path50"></mpath>
  </animateMotion>
</circle><path id="path51" d="M 1347.147229263746 423.9939068432306
c 0 27.25906961238083 -6.669772351965522 7.829732761003005 -14.499505112968528 7.829732761003005
S 1318.148219037809 451.2529764556114 1318.148219037809 423.9939068432306
s 6.669772351965522 -7.829732761003005 14.499505112968528 -7.829732761003005
S 1347.147229263746 396.7348372308498 1347.147229263746 423.9939068432306
z" fill="none" stroke="none"></path>
<circle cx="0" cy="0" r="0.808151754073552" fill="#ffffff">
  <animateMotion begin="-3.62148779687528s" dur="10s" repeatCount="indefinite">
    <mpath xlink:href="#path51"></mpath>
  </animateMotion>
</circle><path id="path52" d="M 1285.8189385274509 211.0460316515386
c 0 29.171580877388944 -7.137727235956869 8.379071103079804 -15.516798339036672 8.379071103079804
S 1254.7853418493773 240.21761252892756 1254.7853418493773 211.0460316515386
s 7.137727235956869 -8.379071103079804 15.516798339036672 -8.379071103079804
S 1285.8189385274509 181.87445077414966 1285.8189385274509 211.0460316515386
z" fill="none" stroke="none"></path>
<circle cx="0" cy="0" r="1.4088585185491667" fill="#ffffff">
  <animateMotion begin="-9.263822157680465s" dur="10s" repeatCount="indefinite">
    <mpath xlink:href="#path52"></mpath>
  </animateMotion>
</circle><path id="path53" d="M 105.51329829215882 522.4853248686269
c 0 33.09176376043469 -8.096920920106358 9.505081080124857 -17.602002000231217 9.505081080124857
S 70.30929429169638 555.5770886290616 70.30929429169638 522.4853248686269
s 8.096920920106358 -9.505081080124857 17.602002000231217 -9.505081080124857
S 105.51329829215882 489.3935611081922 105.51329829215882 522.4853248686269
z" fill="none" stroke="none"></path>
<circle cx="0" cy="0" r="1.156960462900276" fill="#ffffff">
  <animateMotion begin="-8.451558860626996s" dur="10s" repeatCount="indefinite">
    <mpath xlink:href="#path53"></mpath>
  </animateMotion>
</circle><path id="path54" d="M 191.79966225692658 183.796362868871
c 0 36.63322369906291 -8.963448351898371 10.52230893483722 -19.48575728673559 10.52230893483722
S 152.82814768345543 220.4295865679339 152.82814768345543 183.796362868871
s 8.963448351898371 -10.52230893483722 19.48575728673559 -10.52230893483722
S 191.79966225692658 147.1631391698081 191.79966225692658 183.796362868871
z" fill="none" stroke="none"></path>
<circle cx="0" cy="0" r="1.4584938280575264" fill="#ffffff">
  <animateMotion begin="-2.1524982536313297s" dur="10s" repeatCount="indefinite">
    <mpath xlink:href="#path54"></mpath>
  </animateMotion>
</circle><path id="path55" d="M 1050.755831982014 636.1438535699967
c 0 32.872624622448605 -8.043301769322529 9.442136859639493 -17.485438628962022 9.442136859639493
S 1015.7849547240897 669.0164781924453 1015.7849547240897 636.1438535699967
s 8.043301769322529 -9.442136859639493 17.485438628962022 -9.442136859639493
S 1050.755831982014 603.2712289475481 1050.755831982014 636.1438535699967
z" fill="none" stroke="none"></path>
<circle cx="0" cy="0" r="1.3315361749811447" fill="#ffffff">
  <animateMotion begin="-4.308307444148632s" dur="10s" repeatCount="indefinite">
    <mpath xlink:href="#path55"></mpath>
  </animateMotion>
</circle><path id="path56" d="M 390.69607363843386 624.1385376988632
c 0 31.930673189464716 -7.812824291039238 9.17157634165476 -16.984400632693998 9.17157634165476
S 356.7272723730458 656.0692108883279 356.7272723730458 624.1385376988632
s 7.812824291039238 -9.17157634165476 16.984400632693998 -9.17157634165476
S 390.69607363843386 592.2078645093984 390.69607363843386 624.1385376988632
z" fill="none" stroke="none"></path>
<circle cx="0" cy="0" r="0.8332935096713385" fill="#ffffff">
  <animateMotion begin="-1.6697176831466587s" dur="10s" repeatCount="indefinite">
    <mpath xlink:href="#path56"></mpath>
  </animateMotion>
</circle><path id="path57" d="M 510.4909901050075 582.4444527464502
c 0 35.46046488811997 -8.676496727944247 10.185452680630204 -18.861949408574453 10.185452680630204
S 472.7670912878586 617.9049176345702 472.7670912878586 582.4444527464502
s 8.676496727944247 -10.185452680630204 18.861949408574453 -10.185452680630204
S 510.4909901050075 546.9839878583302 510.4909901050075 582.4444527464502
z" fill="none" stroke="none"></path>
<circle cx="0" cy="0" r="1.0900558877057784" fill="#ffffff">
  <animateMotion begin="-6.708809374857263s" dur="10s" repeatCount="indefinite">
    <mpath xlink:href="#path57"></mpath>
  </animateMotion>
</circle><path id="path58" d="M 511.07119882118997 235.0796773823241
c 0 27.66084936380838 -6.768080163485029 7.945137583221557 -14.713217746706587 7.945137583221557
S 481.64476332777684 262.74052674613245 481.64476332777684 235.0796773823241
s 6.768080163485029 -7.945137583221557 14.713217746706587 -7.945137583221557
S 511.07119882118997 207.4188280185157 511.07119882118997 235.0796773823241
z" fill="none" stroke="none"></path>
<circle cx="0" cy="0" r="1.391882795183299" fill="#ffffff">
  <animateMotion begin="-2.4531033135229197s" dur="10s" repeatCount="indefinite">
    <mpath xlink:href="#path58"></mpath>
  </animateMotion>
</circle><path id="path59" d="M 157.2853217933286 606.7345159682011
c 0 25.249750762805377 -6.178130505792804 7.252587985061119 -13.430718490853923 7.252587985061119
S 130.42388481162072 631.9842667310065 130.42388481162072 606.7345159682011
s 6.178130505792804 -7.252587985061119 13.430718490853923 -7.252587985061119
S 157.2853217933286 581.4847652053957 157.2853217933286 606.7345159682011
z" fill="none" stroke="none"></path>
<circle cx="0" cy="0" r="1.3006456284350834" fill="#ffffff">
  <animateMotion begin="-1.0409103118617313s" dur="10s" repeatCount="indefinite">
    <mpath xlink:href="#path59"></mpath>
  </animateMotion>
</circle><path id="path60" d="M 640.3442528552356 642.2811477250972
c 0 29.76138873537384 -7.282041924612747 8.548483998458444 -15.83052592307119 8.548483998458444
S 608.6832010090933 672.0425364604711 608.6832010090933 642.2811477250972
s 7.282041924612747 -8.548483998458444 15.83052592307119 -8.548483998458444
S 640.3442528552356 612.5197589897233 640.3442528552356 642.2811477250972
z" fill="none" stroke="none"></path>
<circle cx="0" cy="0" r="1.4304593227228228" fill="#ffffff">
  <animateMotion begin="-1.8411059896624127s" dur="10s" repeatCount="indefinite">
    <mpath xlink:href="#path60"></mpath>
  </animateMotion>
</circle><path id="path61" d="M 931.246077441206 37.945265713648205
c 0 29.867434012119688 -7.30798917317822 8.578943811991826 -15.886932985170045 8.578943811991826
S 899.472211470866 67.81269972576789 899.472211470866 37.945265713648205
s 7.30798917317822 -8.578943811991826 15.886932985170045 -8.578943811991826
S 931.246077441206 8.077831701528517 931.246077441206 37.945265713648205
z" fill="none" stroke="none"></path>
<circle cx="0" cy="0" r="0.8263670136835881" fill="#ffffff">
  <animateMotion begin="-7.532252591734913s" dur="10s" repeatCount="indefinite">
    <mpath xlink:href="#path61"></mpath>
  </animateMotion>
</circle><path id="path62" d="M 170.08930646621764 643.05005675384
c 0 28.586109699112665 -6.994473649782885 8.210903849745128 -15.205377499528012 8.210903849745128
S 139.67855146716158 671.6361664529526 139.67855146716158 643.05005675384
s 6.994473649782885 -8.210903849745128 15.205377499528012 -8.210903849745128
S 170.08930646621764 614.4639470547273 170.08930646621764 643.05005675384
z" fill="none" stroke="none"></path>
<circle cx="0" cy="0" r="1.3310029809695467" fill="#ffffff">
  <animateMotion begin="-8.080586419137159s" dur="10s" repeatCount="indefinite">
    <mpath xlink:href="#path62"></mpath>
  </animateMotion>
</circle><path id="path63" d="M 1401.483937813707 207.94667450447415
c 0 19.05001760044495 -4.6611745192578065 5.471813566085252 -10.132988085343058 5.471813566085252
S 1381.217961643021 226.9966921049191 1381.217961643021 207.94667450447415
s 4.6611745192578065 -5.471813566085252 10.132988085343058 -5.471813566085252
S 1401.483937813707 188.8966569040292 1401.483937813707 207.94667450447415
z" fill="none" stroke="none"></path>
<circle cx="0" cy="0" r="0.8307469159095155" fill="#ffffff">
  <animateMotion begin="-0.9611065959927934s" dur="10s" repeatCount="indefinite">
    <mpath xlink:href="#path63"></mpath>
  </animateMotion>
</circle><path id="path64" d="M 401.0719664420205 462.6430376033513
c 0 24.719591392947148 -6.04841065997643 7.100308166059287 -13.148718826035717 7.100308166059287
S 374.7745287899491 487.36262899629844 374.7745287899491 462.6430376033513
s 6.04841065997643 -7.100308166059287 13.148718826035717 -7.100308166059287
S 401.0719664420205 437.9234462104041 401.0719664420205 462.6430376033513
z" fill="none" stroke="none"></path>
<circle cx="0" cy="0" r="1.0312081780512812" fill="#ffffff">
  <animateMotion begin="-8.006394119451683s" dur="10s" repeatCount="indefinite">
    <mpath xlink:href="#path64"></mpath>
  </animateMotion>
</circle><path id="path65" d="M 355.76635851416756 100.65313643106411
c 0 35.12754929747863 -8.595038657893706 10.089827989701309 -18.684866647595015 10.089827989701309
S 318.39662521897753 135.78068572854275 318.39662521897753 100.65313643106411
s 8.595038657893706 -10.089827989701309 18.684866647595015 -10.089827989701309
S 355.76635851416756 65.52558713358547 355.76635851416756 100.65313643106411
z" fill="none" stroke="none"></path>
<circle cx="0" cy="0" r="1.402718590043252" fill="#ffffff">
  <animateMotion begin="-7.493860309979361s" dur="10s" repeatCount="indefinite">
    <mpath xlink:href="#path65"></mpath>
  </animateMotion>
</circle><path id="path66" d="M 1339.3911156557858 700.0927329715032
c 0 34.55766920900356 -8.455599912841297 9.926139028118046 -18.38173894095934 9.926139028118046
S 1302.627637773867 734.6504021805067 1302.627637773867 700.0927329715032
s 8.455599912841297 -9.926139028118046 18.38173894095934 -9.926139028118046
S 1339.3911156557858 665.5350637624997 1339.3911156557858 700.0927329715032
z" fill="none" stroke="none"></path>
<circle cx="0" cy="0" r="1.0862147107345757" fill="#ffffff">
  <animateMotion begin="-0.8701722091637731s" dur="10s" repeatCount="indefinite">
    <mpath xlink:href="#path66"></mpath>
  </animateMotion>
</circle><path id="path67" d="M 482.31643580771527 459.1868103230051
c 0 24.385687539571823 -5.966710780959063 7.004399612430205 -12.971110393389267 7.004399612430205
S 456.37421502093673 483.57249786257694 456.37421502093673 459.1868103230051
s 5.966710780959063 -7.004399612430205 12.971110393389267 -7.004399612430205
S 482.31643580771527 434.80112278343324 482.31643580771527 459.1868103230051
z" fill="none" stroke="none"></path>
<circle cx="0" cy="0" r="1.3732891357118433" fill="#ffffff">
  <animateMotion begin="-4.477098594006428s" dur="10s" repeatCount="indefinite">
    <mpath xlink:href="#path67"></mpath>
  </animateMotion>
</circle><path id="path68" d="M 1097.6527487945618 181.64956883702877
c 0 37.285074507280235 -9.12294376241963 10.709542677623046 -19.83248644004268 10.709542677623046
S 1057.9877759144765 218.934643344309 1057.9877759144765 181.64956883702877
s 9.12294376241963 -10.709542677623046 19.83248644004268 -10.709542677623046
S 1097.6527487945618 144.36449432974854 1097.6527487945618 181.64956883702877
z" fill="none" stroke="none"></path>
<circle cx="0" cy="0" r="1.0524810363669803" fill="#ffffff">
  <animateMotion begin="-7.577042872302391s" dur="10s" repeatCount="indefinite">
    <mpath xlink:href="#path68"></mpath>
  </animateMotion>
</circle><path id="path69" d="M 417.40366470436794 556.6049665204413
c 0 36.81444268299685 -9.007789167116249 10.574361196179947 -19.582150363296197 10.574361196179947
S 378.23936397777555 593.4194092034381 378.23936397777555 556.6049665204413
s 9.007789167116249 -10.574361196179947 19.582150363296197 -10.574361196179947
S 417.40366470436794 519.7905238374444 417.40366470436794 556.6049665204413
z" fill="none" stroke="none"></path>
<circle cx="0" cy="0" r="1.4922912685309768" fill="#ffffff">
  <animateMotion begin="-5.6869531502031005s" dur="10s" repeatCount="indefinite">
    <mpath xlink:href="#path69"></mpath>
  </animateMotion>
</circle><path id="path70" d="M 892.2412291572779 352.79514134985806
c 0 33.23832484632868 -8.13278161133574 9.547178413307176 -17.679960024642916 9.547178413307176
S 856.881309107992 386.03346619618674 856.881309107992 352.79514134985806
s 8.13278161133574 -9.547178413307176 17.679960024642916 -9.547178413307176
S 892.2412291572779 319.5568165035294 892.2412291572779 352.79514134985806
z" fill="none" stroke="none"></path>
<circle cx="0" cy="0" r="1.3353536751508333" fill="#ffffff">
  <animateMotion begin="-4.7726400030172345s" dur="10s" repeatCount="indefinite">
    <mpath xlink:href="#path70"></mpath>
  </animateMotion>
</circle><path id="path71" d="M 1311.6877926298712 599.7609155677173
c 0 27.51888879458272 -6.733345130589388 7.904361675039717 -14.637706805629104 7.904361675039717
S 1282.4123790186131 627.2798043623001 1282.4123790186131 599.7609155677173
s 6.733345130589388 -7.904361675039717 14.637706805629104 -7.904361675039717
S 1311.6877926298712 572.2420267731346 1311.6877926298712 599.7609155677173
z" fill="none" stroke="none"></path>
<circle cx="0" cy="0" r="1.065047127415572" fill="#ffffff">
  <animateMotion begin="-5.025064572696829s" dur="10s" repeatCount="indefinite">
    <mpath xlink:href="#path71"></mpath>
  </animateMotion>
</circle><path id="path72" d="M 154.36350888731278 665.6247043637419
c 0 19.293792545804564 -4.720821580356436 5.541834029114077 -10.262655609470512 5.541834029114077
S 133.83819766837178 684.9184969095464 133.83819766837178 665.6247043637419
s 4.720821580356436 -5.541834029114077 10.262655609470512 -5.541834029114077
S 154.36350888731278 646.3309118179374 154.36350888731278 665.6247043637419
z" fill="none" stroke="none"></path>
<circle cx="0" cy="0" r="1.2463653398982568" fill="#ffffff">
  <animateMotion begin="-9.287277576608329s" dur="10s" repeatCount="indefinite">
    <mpath xlink:href="#path72"></mpath>
  </animateMotion>
</circle><path id="path73" d="M 328.4331627702172 497.7159712464544
c 0 33.557594121007575 -8.210900689182704 9.638883417736219 -17.84978410691892 9.638883417736219
S 292.73359455637933 531.273565367462 292.73359455637933 497.7159712464544
s 8.210900689182704 -9.638883417736219 17.84978410691892 -9.638883417736219
S 328.4331627702172 464.1583771254468 328.4331627702172 497.7159712464544
z" fill="none" stroke="none"></path>
<circle cx="0" cy="0" r="0.8524870896713193" fill="#ffffff">
  <animateMotion begin="-9.609271824819173s" dur="10s" repeatCount="indefinite">
    <mpath xlink:href="#path73"></mpath>
  </animateMotion>
</circle><path id="path74" d="M 1045.921666292641 460.95728507169616
c 0 22.622278800174882 -5.535238429830024 6.497888591539595 -12.03312702136962 6.497888591539595
S 1021.8554122499017 483.5795638718711 1021.8554122499017 460.95728507169616
s 5.535238429830024 -6.497888591539595 12.03312702136962 -6.497888591539595
S 1045.921666292641 438.33500627152125 1045.921666292641 460.95728507169616
z" fill="none" stroke="none"></path>
<circle cx="0" cy="0" r="1.4920947380470724" fill="#ffffff">
  <animateMotion begin="-2.230305869352738s" dur="10s" repeatCount="indefinite">
    <mpath xlink:href="#path74"></mpath>
  </animateMotion>
</circle><path id="path75" d="M 871.9047333540343 199.41627271971544
c 0 29.792910640137727 -7.289754731097528 8.557538162592751 -15.847292893690279 8.557538162592751
S 840.2101475666539 229.20918335985317 840.2101475666539 199.41627271971544
s 7.289754731097528 -8.557538162592751 15.847292893690279 -8.557538162592751
S 871.9047333540343 169.6233620795777 871.9047333540343 199.41627271971544
z" fill="none" stroke="none"></path>
<circle cx="0" cy="0" r="1.4942133381352174" fill="#ffffff">
  <animateMotion begin="-7.986990299943644s" dur="10s" repeatCount="indefinite">
    <mpath xlink:href="#path75"></mpath>
  </animateMotion>
</circle><path id="path76" d="M 279.19139453257674 343.56668956849643
c 0 22.886294722824942 -5.599838070478443 6.573722952300781 -12.173561022779225 6.573722952300781
S 254.84427248701832 366.4529842913214 254.84427248701832 343.56668956849643
s 5.599838070478443 -6.573722952300781 12.173561022779225 -6.573722952300781
S 279.19139453257674 320.68039484567146 279.19139453257674 343.56668956849643
z" fill="none" stroke="none"></path>
<circle cx="0" cy="0" r="0.9246226462424071" fill="#ffffff">
  <animateMotion begin="-4.096375992380754s" dur="10s" repeatCount="indefinite">
    <mpath xlink:href="#path76"></mpath>
  </animateMotion>
</circle><path id="path77" d="M 852.9320830911943 576.4966954201248
c 0 32.864866365214475 -8.041403472339711 9.439908424050968 -17.48131189639068 9.439908424050968
S 817.9694592984129 609.3615617853392 817.9694592984129 576.4966954201248
s 8.041403472339711 -9.439908424050968 17.48131189639068 -9.439908424050968
S 852.9320830911943 543.6318290549103 852.9320830911943 576.4966954201248
z" fill="none" stroke="none"></path>
<circle cx="0" cy="0" r="1.2722382919296868" fill="#ffffff">
  <animateMotion begin="-8.630537417128304s" dur="10s" repeatCount="indefinite">
    <mpath xlink:href="#path77"></mpath>
  </animateMotion>
</circle><path id="path78" d="M 723.6016985742133 436.10580309945783
c 0 31.308586785944673 -7.660611660390717 8.992891949154322 -16.653503609545037 8.992891949154322
S 690.2946913551232 467.4143898854025 690.2946913551232 436.10580309945783
s 7.660611660390717 -8.992891949154322 16.653503609545037 -8.992891949154322
S 723.6016985742133 404.79721631351316 723.6016985742133 436.10580309945783
z" fill="none" stroke="none"></path>
<circle cx="0" cy="0" r="0.9244683698753835" fill="#ffffff">
  <animateMotion begin="-7.470161137193099s" dur="10s" repeatCount="indefinite">
    <mpath xlink:href="#path78"></mpath>
  </animateMotion>
</circle><path id="path79" d="M 1254.2787002045147 167.8468105252431
c 0 32.57014214101729 -7.969290098334017 9.355253593696457 -17.324543692030474 9.355253593696457
S 1219.629612820454 200.41695266626039 1219.629612820454 167.8468105252431
s 7.969290098334017 -9.355253593696457 17.324543692030474 -9.355253593696457
S 1254.2787002045147 135.2766683842258 1254.2787002045147 167.8468105252431
z" fill="none" stroke="none"></path>
<circle cx="0" cy="0" r="1.3741234134849285" fill="#ffffff">
  <animateMotion begin="-2.095733667511104s" dur="10s" repeatCount="indefinite">
    <mpath xlink:href="#path79"></mpath>
  </animateMotion>
</circle><path id="path80" d="M 398.33448174149606 223.84042895777014
c 0 24.91153252620461 -6.095374979816022 7.1554401936970695 -13.250815173513091 7.1554401936970695
S 371.83285139446986 248.75196148397475 371.83285139446986 223.84042895777014
s 6.095374979816022 -7.1554401936970695 13.250815173513091 -7.1554401936970695
S 398.33448174149606 198.92889643156553 398.33448174149606 223.84042895777014
z" fill="none" stroke="none"></path>
<circle cx="0" cy="0" r="1.0499786833634421" fill="#ffffff">
  <animateMotion begin="-4.958749362376331s" dur="10s" repeatCount="indefinite">
    <mpath xlink:href="#path80"></mpath>
  </animateMotion>
</circle><path id="path81" d="M 110.30325006917697 714.2084888920313
c 0 26.522324061817972 -6.489504823636311 7.618114358181758 -14.10761918181807 7.618114358181758
S 82.08801170554084 740.7308129538492 82.08801170554084 714.2084888920313
s 6.489504823636311 -7.618114358181758 14.10761918181807 -7.618114358181758
S 110.30325006917697 687.6861648302133 110.30325006917697 714.2084888920313
z" fill="none" stroke="none"></path>
<circle cx="0" cy="0" r="1.0179663875336544" fill="#ffffff">
  <animateMotion begin="-7.477759498243602s" dur="10s" repeatCount="indefinite">
    <mpath xlink:href="#path81"></mpath>
  </animateMotion>
</circle><path id="path82" d="M 93.05783333045238 354.0511680885489
c 0 35.12246786374635 -8.593795328363468 10.08836842894842 -18.68216375731189 10.08836842894842
S 55.693505815828594 389.17363595229523 55.693505815828594 354.0511680885489
s 8.593795328363468 -10.08836842894842 18.68216375731189 -10.08836842894842
S 93.05783333045238 318.9287002248025 93.05783333045238 354.0511680885489
z" fill="none" stroke="none"></path>
<circle cx="0" cy="0" r="1.0852610602240516" fill="#ffffff">
  <animateMotion begin="-5.252283761566918s" dur="10s" repeatCount="indefinite">
    <mpath xlink:href="#path82"></mpath>
  </animateMotion>
</circle><path id="path83" d="M 1124.2944316389753 641.0749169363953
c 0 29.03004509244013 -7.1030961396396055 8.338417207403015 -15.441513347042621 8.338417207403015
S 1093.41140494489 670.1049620288354 1093.41140494489 641.0749169363953
s 7.1030961396396055 -8.338417207403015 15.441513347042621 -8.338417207403015
S 1124.2944316389753 612.0448718439552 1124.2944316389753 641.0749169363953
z" fill="none" stroke="none"></path>
<circle cx="0" cy="0" r="1.2584719055596416" fill="#ffffff">
  <animateMotion begin="-4.669598742176375s" dur="10s" repeatCount="indefinite">
    <mpath xlink:href="#path83"></mpath>
  </animateMotion>
</circle><path id="path84" d="M 1062.9267226795753 591.1773437073718
c 0 28.720078479327068 -7.027253244941729 8.24938424406203 -15.27663748900376 8.24938424406203
S 1032.3734477015676 619.8974221866989 1032.3734477015676 591.1773437073718
s 7.027253244941729 -8.24938424406203 15.27663748900376 -8.24938424406203
S 1062.9267226795753 562.4572652280448 1062.9267226795753 591.1773437073718
z" fill="none" stroke="none"></path>
<circle cx="0" cy="0" r="1.0611640627971672" fill="#ffffff">
  <animateMotion begin="-2.5033964648391183s" dur="10s" repeatCount="indefinite">
    <mpath xlink:href="#path84"></mpath>
  </animateMotion>
</circle><path id="path85" d="M 1106.638188233765 297.68483772527725
c 0 35.02734748473994 -8.570521193074665 10.061046617957217 -18.631567811031882 10.061046617957217
S 1069.3750526117014 332.7121852100172 1069.3750526117014 297.68483772527725
s 8.570521193074665 -10.061046617957217 18.631567811031882 -10.061046617957217
S 1106.638188233765 262.6574902405373 1106.638188233765 297.68483772527725
z" fill="none" stroke="none"></path>
<circle cx="0" cy="0" r="1.2756626011498533" fill="#ffffff">
  <animateMotion begin="-2.72460810015686s" dur="10s" repeatCount="indefinite">
    <mpath xlink:href="#path85"></mpath>
  </animateMotion>
</circle><path id="path86" d="M 1217.5596235442504 602.5782621801669
c 0 35.43815149951141 -8.671037069029387 10.179043515817108 -18.850080584846495 10.179043515817108
S 1179.8594623745576 638.0164136796783 1179.8594623745576 602.5782621801669
s 8.671037069029387 -10.179043515817108 18.850080584846495 -10.179043515817108
S 1217.5596235442504 567.1401106806555 1217.5596235442504 602.5782621801669
z" fill="none" stroke="none"></path>
<circle cx="0" cy="0" r="1.3662153003947346" fill="#ffffff">
  <animateMotion begin="-6.021636241618475s" dur="10s" repeatCount="indefinite">
    <mpath xlink:href="#path86"></mpath>
  </animateMotion>
</circle><path id="path87" d="M 351.27476706306226 337.46954497039883
c 0 28.48863698890933 -6.970623944094836 8.182906369154807 -15.153530313249643 8.182906369154807
S 320.967706436563 365.95818195930815 320.967706436563 337.46954497039883
s 6.970623944094836 -8.182906369154807 15.153530313249643 -8.182906369154807
S 351.27476706306226 308.9809079814895 351.27476706306226 337.46954497039883
z" fill="none" stroke="none"></path>
<circle cx="0" cy="0" r="0.85834667756381" fill="#ffffff">
  <animateMotion begin="-7.060279805963261s" dur="10s" repeatCount="indefinite">
    <mpath xlink:href="#path87"></mpath>
  </animateMotion>
</circle><path id="path88" d="M 958.9668872623432 584.9978005188951
c 0 23.68004824201451 -5.794054357088656 6.801715984408423 -12.59577034149708 6.801715984408423
S 933.775346579349 608.6778487609097 933.775346579349 584.9978005188951
s 5.794054357088656 -6.801715984408423 12.59577034149708 -6.801715984408423
S 958.9668872623432 561.3177522768806 958.9668872623432 584.9978005188951
z" fill="none" stroke="none"></path>
<circle cx="0" cy="0" r="0.9056301930053412" fill="#ffffff">
  <animateMotion begin="-9.948554663820904s" dur="10s" repeatCount="indefinite">
    <mpath xlink:href="#path88"></mpath>
  </animateMotion>
</circle><path id="path89" d="M 34.318500533879494 318.6468729622542
c 0 36.86109961413233 -9.019205224734506 10.587762655123116 -19.60696787985762 10.587762655123116
S -4.895435225835746 355.5079725763865 -4.895435225835746 318.6468729622542
s 9.019205224734506 -10.587762655123116 19.60696787985762 -10.587762655123116
S 34.318500533879494 281.78577334812184 34.318500533879494 318.6468729622542
z" fill="none" stroke="none"></path>
<circle cx="0" cy="0" r="0.9487133552121934" fill="#ffffff">
  <animateMotion begin="-7.486605403423998s" dur="10s" repeatCount="indefinite">
    <mpath xlink:href="#path89"></mpath>
  </animateMotion>
</circle><path id="path90" d="M 340.2895061686836 253.27039761878544
c 0 26.646216881359255 -6.51981902416237 7.653700593581914 -14.173519617744283 7.653700593581914
S 311.9424669331951 279.9166145001447 311.9424669331951 253.27039761878544
s 6.51981902416237 -7.653700593581914 14.173519617744283 -7.653700593581914
S 340.2895061686836 226.62418073742617 340.2895061686836 253.27039761878544
z" fill="none" stroke="none"></path>
<circle cx="0" cy="0" r="1.1672972693850547" fill="#ffffff">
  <animateMotion begin="-2.616037284196504s" dur="10s" repeatCount="indefinite">
    <mpath xlink:href="#path90"></mpath>
  </animateMotion>
</circle><path id="path91" d="M 1238.3563295902366 670.0458456754538
c 0 36.16831164027263 -8.849693273683727 10.388770364759159 -19.238463638442887 10.388770364759159
S 1199.8794023133507 706.2141573157264 1199.8794023133507 670.0458456754538
s 8.849693273683727 -10.388770364759159 19.238463638442887 -10.388770364759159
S 1238.3563295902366 633.8775340351813 1238.3563295902366 670.0458456754538
z" fill="none" stroke="none"></path>
<circle cx="0" cy="0" r="1.499484187618024" fill="#ffffff">
  <animateMotion begin="-1.7670418067553473s" dur="10s" repeatCount="indefinite">
    <mpath xlink:href="#path91"></mpath>
  </animateMotion>
</circle><path id="path92" d="M 1418.4841925405653 713.2858655743115
c 0 35.526937588980374 -8.692761324963282 10.204545903217769 -18.89730722818105 10.204545903217769
S 1380.6895780842033 748.8128031632918 1380.6895780842033 713.2858655743115
s 8.692761324963282 -10.204545903217769 18.89730722818105 -10.204545903217769
S 1418.4841925405653 677.7589279853312 1418.4841925405653 713.2858655743115
z" fill="none" stroke="none"></path>
<circle cx="0" cy="0" r="1.2469518614273816" fill="#ffffff">
  <animateMotion begin="-1.9558158043518548s" dur="10s" repeatCount="indefinite">
    <mpath xlink:href="#path92"></mpath>
  </animateMotion>
</circle><path id="path93" d="M 538.9554134500131 10.147313552245109
c 0 27.771463326995626 -6.795145282137227 7.976909679030659 -14.772054961167886 7.976909679030659
S 509.4113035276773 37.91877687924074 509.4113035276773 10.147313552245109
s 6.795145282137227 -7.976909679030659 14.772054961167886 -7.976909679030659
S 538.9554134500131 -17.624149774750517 538.9554134500131 10.147313552245109
z" fill="none" stroke="none"></path>
<circle cx="0" cy="0" r="1.3229835661702936" fill="#ffffff">
  <animateMotion begin="-7.514065049684708s" dur="10s" repeatCount="indefinite">
    <mpath xlink:href="#path93"></mpath>
  </animateMotion>
</circle><path id="path94" d="M 1264.1827724585933 483.6116033550065
c 0 24.37987896034984 -5.965289532851555 7.002731190738784 -12.968020723590339 7.002731190738784
S 1238.2467310114125 507.99148231535634 1238.2467310114125 483.6116033550065
s 5.965289532851555 -7.002731190738784 12.968020723590339 -7.002731190738784
S 1264.1827724585933 459.2317243946566 1264.1827724585933 483.6116033550065
z" fill="none" stroke="none"></path>
<circle cx="0" cy="0" r="0.9686169652508969" fill="#ffffff">
  <animateMotion begin="-2.934083011941835s" dur="10s" repeatCount="indefinite">
    <mpath xlink:href="#path94"></mpath>
  </animateMotion>
</circle><path id="path95" d="M 1331.7447340316824 383.06994206987355
c 0 23.6118375897284 -5.7773645166356715 6.782123563007093 -12.559488079642765 6.782123563007093
S 1306.625757872397 406.68177965960194 1306.625757872397 383.06994206987355
s 5.7773645166356715 -6.782123563007093 12.559488079642765 -6.782123563007093
S 1331.7447340316824 359.45810448014515 1331.7447340316824 383.06994206987355
z" fill="none" stroke="none"></path>
<circle cx="0" cy="0" r="1.3650830676716672" fill="#ffffff">
  <animateMotion begin="-0.3292434396560662s" dur="10s" repeatCount="indefinite">
    <mpath xlink:href="#path95"></mpath>
  </animateMotion>
</circle><path id="path96" d="M 1105.750307389967 51.747895560655124
c 0 32.26565757900112 -7.894788556564103 9.267795262053514 -17.16258381861762 9.267795262053514
S 1071.4251397527319 84.01355313965624 1071.4251397527319 51.747895560655124
s 7.894788556564103 -9.267795262053514 17.16258381861762 -9.267795262053514
S 1105.750307389967 19.482237981654002 1105.750307389967 51.747895560655124
z" fill="none" stroke="none"></path>
<circle cx="0" cy="0" r="0.8626029879691139" fill="#ffffff">
  <animateMotion begin="-9.014114390442746s" dur="10s" repeatCount="indefinite">
    <mpath xlink:href="#path96"></mpath>
  </animateMotion>
</circle><path id="path97" d="M 856.2252039370534 388.72112730278866
c 0 27.729983712172974 -6.784996014680621 7.9649953215816 -14.74999133626222 7.9649953215816
S 826.7252212645288 416.4511110149616 826.7252212645288 388.72112730278866
s 6.784996014680621 -7.9649953215816 14.74999133626222 -7.9649953215816
S 856.2252039370534 360.9911435906157 856.2252039370534 388.72112730278866
z" fill="none" stroke="none"></path>
<circle cx="0" cy="0" r="1.337012787932128" fill="#ffffff">
  <animateMotion begin="-1.6309752629781604s" dur="10s" repeatCount="indefinite">
    <mpath xlink:href="#path97"></mpath>
  </animateMotion>
</circle><path id="path98" d="M 1246.8496236601354 316.26429271605554
c 0 30.25244030296961 -7.402192840088308 8.689530725321058 -16.091723565409367 8.689530725321058
S 1214.6661765293165 346.51673301902514 1214.6661765293165 316.26429271605554
s 7.402192840088308 -8.689530725321058 16.091723565409367 -8.689530725321058
S 1246.8496236601354 286.01185241308593 1246.8496236601354 316.26429271605554
z" fill="none" stroke="none"></path>
<circle cx="0" cy="0" r="0.7607748478780987" fill="#ffffff">
  <animateMotion begin="-7.355063455757332s" dur="10s" repeatCount="indefinite">
    <mpath xlink:href="#path98"></mpath>
  </animateMotion>
</circle><path id="path99" d="M 1202.441287833416 240.8517726769584
c 0 33.56417511518676 -8.212510932439312 9.640773703298324 -17.853284635737634 9.640773703298324
S 1166.7347185619406 274.4159477921452 1166.7347185619406 240.8517726769584
s 8.212510932439312 -9.640773703298324 17.853284635737634 -9.640773703298324
S 1202.441287833416 207.28759756177163 1202.441287833416 240.8517726769584
z" fill="none" stroke="none"></path>
<circle cx="0" cy="0" r="1.3224851843095144" fill="#ffffff">
  <animateMotion begin="-2.009019499688618s" dur="10s" repeatCount="indefinite">
    <mpath xlink:href="#path99"></mpath>
  </animateMotion>
</circle></g>
</svg>